<svg width="101" height="106" viewBox="0 0 101 106" fill="none" xmlns="http://www.w3.org/2000/svg">
<path d="M53.6925 21.6585C53.305 21.4731 52.9106 21.2987 52.5101 21.1351C52.5754 21.1455 52.6391 21.1572 52.7011 21.1701C53.1419 21.2622 53.4541 21.4122 53.6632 21.6272C53.6731 21.6374 53.6829 21.6478 53.6925 21.6585Z" fill="#6A787A" stroke="black"/>
<path d="M35.002 20.4398C28.3644 22.5522 23.2595 27.3887 20.5288 34.0206C13.739 28.0296 18.0526 16.8767 27.2833 16.8767C30.3859 16.8767 33.1503 18.2696 35.002 20.4398Z" fill="#6A787A" stroke="black"/>
<path d="M7.30446 32.7705L7.19368 32.422H6.82795H2.23878C1.26774 32.422 0.5 31.6515 0.5 30.7271V22.7769C0.5 21.849 1.26767 21.0805 2.23878 21.0805H6.83519H7.20288L7.31247 20.7295C7.69856 19.4928 8.20833 18.306 8.81579 17.1759L8.99356 16.8451L8.72551 16.5822L5.47365 13.3923C5.47356 13.3922 5.47347 13.3921 5.47338 13.392C5.15054 13.074 4.97033 12.6447 4.97033 12.197C4.97033 11.7495 5.15024 11.3202 5.47365 11C5.4739 10.9997 5.47416 10.9995 5.47442 10.9992L11.2094 5.38153L11.2102 5.38073C11.5461 5.05025 11.9928 4.88282 12.4417 4.88282C12.8896 4.88282 13.3337 5.04939 13.6743 5.38311C13.6744 5.38315 13.6744 5.38319 13.6744 5.38323L16.9262 8.57193L17.1847 8.82542L17.5062 8.65892C18.663 8.05983 19.8729 7.55944 21.1352 7.18209L21.492 7.07544V6.70304V2.19307C21.492 1.26869 22.2649 0.5 23.2308 0.5H31.3391C32.3099 0.5 33.0743 1.26664 33.0743 2.19307V6.70326V7.07594L33.4314 7.18242C34.6969 7.55973 35.9062 8.06002 37.059 8.65886L37.3804 8.82578L37.6392 8.57255L40.9021 5.3802L40.9039 5.37846C41.24 5.04631 41.6832 4.87949 42.1315 4.87949C42.5793 4.87949 43.0235 5.04615 43.3636 5.37973L43.3636 5.37978L49.0935 10.9991L49.0957 11.0012C49.4229 11.3183 49.6029 11.7477 49.6029 12.1937C49.6029 12.6395 49.4229 13.0691 49.0957 13.3861L49.0934 13.3884L45.8409 16.5807L45.5721 16.8446L45.7514 17.1757C46.1612 17.9323 46.5103 18.7308 46.8175 19.5542C44.3054 19.1643 42.1214 19.1722 39.8451 19.4271C37.2834 15.2158 32.6418 12.354 27.2831 12.354C19.2025 12.354 12.6119 18.804 12.6119 26.7521C12.6119 31.7158 15.1953 36.0717 19.0863 38.6589C18.6249 40.7199 18.3505 42.8963 18.3084 45.1862C18.275 45.1737 18.242 45.1614 18.2096 45.1492C17.9534 45.0526 17.7197 44.9592 17.5036 44.8471L17.1817 44.68L16.923 44.9341L13.6774 48.1217C13.6769 48.1222 13.6763 48.1227 13.6758 48.1233C13.3439 48.4423 12.9006 48.6214 12.4417 48.6214C11.9732 48.6214 11.5278 48.4402 11.206 48.1247C11.206 48.1247 11.206 48.1247 11.206 48.1247L5.47325 42.5021C4.79902 41.8397 4.79956 40.7713 5.47288 40.1112L5.47298 40.1111L8.72553 36.9203L8.99371 36.6572L8.81565 36.3264C8.20863 35.1986 7.69819 34.0092 7.30446 32.7705Z" fill="#6A787A" stroke="black"/>
<path d="M82.6162 65.5597C82.6162 69.5242 80.4037 72.9669 77.1283 74.8561C72.6559 71.0599 67.237 68.3929 61.3385 67.1807C63.3356 63.8904 64.8772 60.1697 65.8902 56.2921C67.5548 55.3111 69.4813 54.7249 71.552 54.7249C77.6606 54.7249 82.6162 59.5946 82.6162 65.5597Z" fill="#6A787A" stroke="black"/>
<path d="M100.496 61.2704V61.2706L100.5 69.846C100.5 69.846 100.5 69.8461 100.5 69.8462C100.5 70.3378 100.299 70.8127 99.9416 71.1618L99.9381 71.1654C99.5863 71.5158 99.0937 71.7147 98.5822 71.7147H93.6214H93.2537L93.1441 72.0657C92.7261 73.4047 92.171 74.6896 91.5113 75.9088L91.3319 76.2403L91.6013 76.504L95.1195 79.9482C95.1197 79.9484 95.1199 79.9486 95.1201 79.9488C95.4764 80.2998 95.672 80.7728 95.672 81.2672C95.672 81.762 95.4761 82.2348 95.1202 82.5837C95.1202 82.5838 95.1202 82.5838 95.1202 82.5838L88.9348 88.6466C88.9348 88.6466 88.9347 88.6467 88.9347 88.6467C88.5592 89.0137 88.069 89.1975 87.5756 89.1975C87.4452 89.1975 87.3067 89.1766 87.1593 89.139C85.6295 85.0073 83.3471 81.2966 80.4982 78.1271C84.5413 75.3529 87.2089 70.7689 87.2089 65.5597C87.2089 57.0821 80.1759 50.2022 71.5519 50.2022C69.9396 50.2022 68.4081 50.4773 66.9612 50.9287C67.1809 49.2183 67.2976 47.5022 67.2976 45.8068C67.2976 42.8448 66.9219 40.0569 66.2319 37.4719C66.5197 37.2974 66.8381 37.1956 67.1801 37.1956H75.9269C76.9924 37.1956 77.8374 38.0398 77.8374 39.0626V43.9268V44.2995L78.1946 44.4059C79.5655 44.8145 80.8728 45.3557 82.1173 46.0028L82.4388 46.1699L82.6977 45.9165L86.2169 42.4713L86.218 42.4702C86.5898 42.104 87.0792 41.9189 87.5722 41.9189C88.0655 41.9189 88.5583 42.1045 88.9296 42.4702L88.9304 42.471L95.1126 48.5343L95.1135 48.5351C95.4736 48.8867 95.6715 49.3599 95.6715 49.8527C95.6715 50.3455 95.4738 50.8181 95.1141 51.1679L95.1127 51.1693L91.6008 54.6126L91.332 54.8762L91.5109 55.2073C92.1708 56.4286 92.726 57.7131 93.1439 59.0508L93.2536 59.4017H93.6212H98.582C99.6453 59.4017 100.496 60.247 100.496 61.2704Z" fill="#6A787A" stroke="black"/>
<path d="M2.84568 102.477L2.8456 102.476C1.86153 101.131 1.60327 99.4053 2.14294 97.8382C2.14297 97.8381 2.143 97.838 2.14303 97.838L4.21611 91.8549C4.21612 91.8549 4.21612 91.8549 4.21613 91.8549C7.87399 81.3008 17.5021 74.0101 28.663 72.9329C32.5314 76.8839 37.3411 79.4149 42.7982 79.4149C48.2594 79.4149 53.0657 76.8835 56.9373 72.9329C68.0916 74.0101 77.7193 81.3008 81.3771 91.8531L83.4505 97.8388L83.4505 97.8389C83.9932 99.4048 83.732 101.131 82.7507 102.477C81.7654 103.824 80.1761 104.627 78.4775 104.627H7.11552C5.42043 104.627 3.83089 103.824 2.84568 102.477Z" fill="#6A787A" stroke="black"/>
<path d="M42.7983 73.1306C37.9075 73.1306 33.3892 69.6945 30.0643 64.4829C26.7485 59.2855 24.6921 52.423 24.6921 45.8068C24.6921 38.9542 26.9762 33.8634 30.3603 30.4877C33.7491 27.1072 38.2711 25.4163 42.7998 25.4197C47.3285 25.423 51.8508 27.1207 55.2399 30.5031C58.6243 33.8807 60.9081 38.9682 60.908 45.8068C60.908 52.423 58.8517 59.2855 55.5355 64.4829C52.2103 69.6944 47.6911 73.1306 42.7983 73.1306Z" fill="#6A787A" stroke="black"/>
</svg>
