<svg width="101" height="112" viewBox="0 0 101 112" fill="none" xmlns="http://www.w3.org/2000/svg">
<path d="M80.25 11.3333V11.8333H80.75H85.7916C94.0396 11.8333 100.417 18.8186 100.417 28.0833V33.1667H0.583313V28.0833C0.583313 18.8186 6.9604 11.8333 15.2083 11.8333H20.25H20.75V11.3333V5.74999C20.75 4.17425 21.2233 2.90564 22.0075 2.03717C22.7876 1.17332 23.9091 0.666656 25.2916 0.666656C26.6742 0.666656 27.7957 1.17332 28.5758 2.03717C29.36 2.90564 29.8333 4.17425 29.8333 5.74999V11.3333V11.8333H30.3333H70.6666H71.1666V11.3333V5.74999C71.1666 4.17425 71.64 2.90564 72.4242 2.03717C73.2042 1.17332 74.3258 0.666656 75.7083 0.666656C77.0909 0.666656 78.2124 1.17332 78.9924 2.03717C79.7766 2.90564 80.25 4.17425 80.25 5.74999V11.3333ZM15.2083 111.333C6.9604 111.333 0.583313 104.348 0.583313 95.0833V45.3333H100.417V95.0833C100.417 104.348 94.0396 111.333 85.7916 111.333H15.2083ZM81.25 61.5833C81.25 59.8091 80.715 58.286 79.7346 57.2003C78.7501 56.11 77.3508 55.5 75.7083 55.5C74.0659 55.5 72.6665 56.11 71.682 57.2003C70.7016 58.286 70.1666 59.8091 70.1666 61.5833C70.1666 63.3576 70.7016 64.8806 71.682 65.9663C72.6665 67.0567 74.0659 67.6667 75.7083 67.6667C77.3508 67.6667 78.7501 67.0567 79.7346 65.9663C80.715 64.8806 81.25 63.3576 81.25 61.5833ZM81.25 83.9167C81.25 82.1424 80.715 80.6193 79.7346 79.5337C78.7501 78.4433 77.3508 77.8333 75.7083 77.8333C74.0659 77.8333 72.6665 78.4433 71.682 79.5337C70.7016 80.6193 70.1666 82.1424 70.1666 83.9167C70.1666 85.6909 70.7016 87.214 71.682 88.2997C72.6665 89.39 74.0659 90 75.7083 90C77.3508 90 78.7501 89.39 79.7346 88.2997C80.715 87.214 81.25 85.6909 81.25 83.9167ZM56.0416 61.5833C56.0416 59.8091 55.5066 58.286 54.5263 57.2003C53.5417 56.11 52.1424 55.5 50.5 55.5C48.8575 55.5 47.4582 56.11 46.4737 57.2003C45.4933 58.286 44.9583 59.8091 44.9583 61.5833C44.9583 63.3576 45.4933 64.8806 46.4737 65.9663C47.4582 67.0567 48.8575 67.6667 50.5 67.6667C52.1424 67.6667 53.5417 67.0567 54.5263 65.9663C55.5066 64.8806 56.0416 63.3576 56.0416 61.5833ZM56.0416 83.9167C56.0416 82.1424 55.5066 80.6193 54.5263 79.5337C53.5417 78.4433 52.1424 77.8333 50.5 77.8333C48.8575 77.8333 47.4582 78.4433 46.4737 79.5337C45.4933 80.6193 44.9583 82.1424 44.9583 83.9167C44.9583 85.6909 45.4933 87.214 46.4737 88.2997C47.4582 89.39 48.8575 90 50.5 90C52.1424 90 53.5417 89.39 54.5263 88.2997C55.5066 87.214 56.0416 85.6909 56.0416 83.9167ZM30.8333 61.5833C30.8333 59.8091 30.2983 58.286 29.3179 57.2003C28.3334 56.11 26.9341 55.5 25.2916 55.5C23.6492 55.5 22.2499 56.11 21.2653 57.2003C20.285 58.286 19.75 59.8091 19.75 61.5833C19.75 63.3576 20.285 64.8806 21.2653 65.9663C22.2499 67.0567 23.6492 67.6667 25.2916 67.6667C26.9341 67.6667 28.3334 67.0567 29.3179 65.9663C30.2983 64.8806 30.8333 63.3576 30.8333 61.5833ZM30.8333 83.9167C30.8333 82.1424 30.2983 80.6193 29.3179 79.5337C28.3334 78.4433 26.9341 77.8333 25.2916 77.8333C23.6492 77.8333 22.2499 78.4433 21.2653 79.5337C20.285 80.6193 19.75 82.1424 19.75 83.9167C19.75 85.6909 20.285 87.214 21.2653 88.2997C22.2499 89.39 23.6492 90 25.2916 90C26.9341 90 28.3334 89.39 29.3179 88.2997C30.2983 87.214 30.8333 85.6909 30.8333 83.9167Z" fill="#6A787A" stroke="black"/>
</svg>
