<svg width="500" height="501" viewBox="0 0 500 501" fill="none" xmlns="http://www.w3.org/2000/svg">
<path d="M240.486 6.65931C246.372 3.25432 253.628 3.25432 259.514 6.65931L456.021 120.339C461.891 123.735 465.506 130.003 465.506 136.785V364.215C465.506 370.997 461.891 377.265 456.021 380.661L259.514 494.341C253.628 497.746 246.372 497.746 240.486 494.341L43.9794 380.661C38.1088 377.265 34.4937 370.997 34.4937 364.215V136.785C34.4937 130.003 38.1088 123.735 43.9794 120.339L240.486 6.65931Z" fill="#222222" stroke="black" stroke-width="2"/>
<path d="M240.842 96.4529L199.73 138.721L157.364 181.405" stroke="#FFFDFD" stroke-width="2"/>
<path d="M212.273 91.6722L183.997 122.441L154.013 152.165" stroke="#FFFDFD" stroke-width="2"/>
<path d="M297.251 184.025L286.792 169.616L275.026 155.206L264.567 144.726L252.147 133.591L238.42 123.112" stroke="#FFFDFD" stroke-width="2"/>
<path d="M329.281 210.225L302.031 239.255L273.719 267.203" stroke="#FFFDFD" stroke-width="2"/>
<path d="M324.943 181.405L285.964 221.5L244.957 263.279" stroke="#FFFDFD" stroke-width="2"/>
<line y1="-0.5" x2="24.0596" y2="-0.5" transform="matrix(-0.7064 0.707813 -0.7064 -0.707813 247.571 114.597)" stroke="#FFFDFD"/>
<line y1="-0.5" x2="24.0596" y2="-0.5" transform="matrix(-0.7064 0.707813 -0.7064 -0.707813 260.645 125.077)" stroke="#FFFDFD"/>
<line y1="-0.5" x2="24.0596" y2="-0.5" transform="matrix(-0.7064 0.707813 -0.7064 -0.707813 272.411 136.866)" stroke="#FFFDFD"/>
<line y1="-0.5" x2="24.0596" y2="-0.5" transform="matrix(-0.7064 0.707813 -0.7064 -0.707813 284.177 148.656)" stroke="#FFFDFD"/>
<line y1="-0.5" x2="24.0596" y2="-0.5" transform="matrix(-0.7064 0.707813 -0.7064 -0.707813 295.944 160.446)" stroke="#FFFDFD"/>
<line y1="-0.5" x2="24.0596" y2="-0.5" transform="matrix(-0.7064 0.707813 -0.7064 -0.707813 306.403 173.546)" stroke="#FFFDFD"/>
<line y1="-0.5" x2="15.7588" y2="-0.5" transform="matrix(-0.698343 0.715763 -0.714367 -0.699771 172.018 179.041)" stroke="#FFFDFD"/>
<path d="M167.529 160.904L156.056 172.236" stroke="#FFFDFD"/>
<line y1="-0.5" x2="15.7588" y2="-0.5" transform="matrix(-0.698343 0.715763 -0.714367 -0.699771 164.447 151.276)" stroke="#FFFDFD"/>
<line y1="-0.5" x2="15.7588" y2="-0.5" transform="matrix(-0.698343 0.715763 -0.714367 -0.699771 164.447 130.316)" stroke="#FFFDFD"/>
<line y1="-0.5" x2="15.7588" y2="-0.5" transform="matrix(-0.698343 0.715763 -0.714367 -0.699771 167.061 117.217)" stroke="#FFFDFD"/>
<line y1="-0.5" x2="15.7588" y2="-0.5" transform="matrix(-0.698343 0.715763 -0.714367 -0.699771 295.183 254.764)" stroke="#FFFDFD"/>
<line y1="-0.5" x2="15.7588" y2="-0.5" transform="matrix(-0.698343 0.715763 -0.714367 -0.699771 306.949 254.764)" stroke="#FFFDFD"/>
<line y1="-0.5" x2="15.7588" y2="-0.5" transform="matrix(-0.698343 0.715763 -0.714367 -0.699771 177.52 190.575)" stroke="#FFFDFD"/>
<line y1="-0.5" x2="15.7588" y2="-0.5" transform="matrix(-0.698343 0.715763 -0.714367 -0.699771 184.057 201.055)" stroke="#FFFDFD"/>
<line y1="-0.5" x2="15.7588" y2="-0.5" transform="matrix(-0.698343 0.715763 -0.714367 -0.699771 189.286 210.225)" stroke="#FFFDFD"/>
<line y1="-0.5" x2="15.7588" y2="-0.5" transform="matrix(-0.698343 0.715763 -0.714367 -0.699771 197.131 216.775)" stroke="#FFFDFD"/>
<line y1="-0.5" x2="15.7588" y2="-0.5" transform="matrix(-0.698343 0.715763 -0.714367 -0.699771 204.975 224.635)" stroke="#FFFDFD"/>
<line y1="-0.5" x2="15.7588" y2="-0.5" transform="matrix(-0.698343 0.715763 -0.714367 -0.699771 215.434 231.184)" stroke="#FFFDFD"/>
<line y1="-0.5" x2="15.7588" y2="-0.5" transform="matrix(-0.698343 0.715763 -0.714367 -0.699771 224.585 237.734)" stroke="#FFFDFD"/>
<line y1="-0.5" x2="15.7588" y2="-0.5" transform="matrix(-0.698343 0.715763 -0.714367 -0.699771 236.351 242.974)" stroke="#FFFDFD"/>
<line y1="-0.5" x2="15.7588" y2="-0.5" transform="matrix(-0.698343 0.715763 -0.714367 -0.699771 248.118 246.904)" stroke="#FFFDFD"/>
<line y1="-0.5" x2="15.7588" y2="-0.5" transform="matrix(-0.698343 0.715763 -0.714367 -0.699771 265.113 252.144)" stroke="#FFFDFD"/>
<line y1="-0.5" x2="15.7588" y2="-0.5" transform="matrix(-0.698343 0.715763 -0.714367 -0.699771 276.88 253.454)" stroke="#FFFDFD"/>
<path d="M158.017 180.75C159.063 188.086 162.811 197.343 164.554 201.055L171.745 213.5L180.242 223.98L191.355 235.114L209.004 247.559L225.346 255.419L245.61 262.624M153.442 152.586V147.346V141.451L154.749 135.556L155.403 130.971L156.71 125.731L160.632 115.907L165.208 107.392L169.784 100.842L173.052 97.567L178.281 95.6021L185.472 92.9821L194.623 91.6722L201.16 91.0172H205.082H209.658H212.926M241.035 96.2571L251.494 99.532L259.338 102.807L263.913 104.772L269.797 108.047L274.372 110.667L284.177 117.217L290.061 121.802L293.983 125.731L299.212 131.626L302.481 135.556L305.749 140.141L309.017 144.726L310.978 148.001L315.554 155.861L318.822 162.411L321.437 168.306L324.052 175.51L326.013 181.405M329.935 209.57V214.81V219.395L329.281 228.564L327.32 235.769L324.706 245.594L322.091 250.834L318.822 256.729L316.208 260.659L312.939 262.624L309.671 263.934L303.788 265.244L298.558 265.899L289.407 267.209H282.216H277.641H275.026" stroke="#FFFDFD" stroke-width="2"/>
<rect x="32" y="304.608" width="435" height="72.144" rx="5" fill="#FC7B04"/>
<path d="M146.569 355.608H138.793L143.653 332.748H151.465L146.569 355.608ZM160.183 342.432C160.687 341.952 161.251 341.508 161.875 341.1C162.427 340.764 163.075 340.452 163.819 340.164C164.563 339.876 165.391 339.732 166.303 339.732C167.551 339.732 168.583 340.056 169.399 340.704C170.215 341.328 170.623 342.192 170.623 343.296C170.623 343.608 170.587 343.992 170.515 344.448C170.443 344.88 170.359 345.336 170.263 345.816C170.167 346.296 170.059 346.788 169.939 347.292C169.843 347.772 169.759 348.204 169.687 348.588L168.175 355.608H160.867L162.847 346.212C162.895 345.9 162.955 345.588 163.027 345.276C163.099 344.94 163.135 344.64 163.135 344.376C163.135 344.016 163.039 343.728 162.847 343.512C162.679 343.272 162.415 343.152 162.055 343.152C161.623 343.152 161.203 343.308 160.795 343.62C160.411 343.932 160.111 344.196 159.895 344.412L157.519 355.608H150.175L153.451 340.128H159.319L159.967 342.432H160.183ZM173.109 340.128C173.997 339.936 174.777 339.72 175.449 339.48C176.121 339.24 176.733 338.94 177.285 338.58C177.861 338.22 178.401 337.776 178.905 337.248C179.433 336.72 179.997 336.072 180.597 335.304H184.305L183.261 340.128H186.069L185.601 342.54H182.757L181.281 349.56C181.161 350.112 181.065 350.604 180.993 351.036C180.921 351.468 180.885 351.804 180.885 352.044C180.885 352.524 181.053 352.824 181.389 352.944C181.749 353.064 182.409 353.124 183.369 353.124L182.829 355.608C182.661 355.656 182.397 355.692 182.037 355.716C181.701 355.74 181.317 355.764 180.885 355.788C180.477 355.836 180.045 355.86 179.589 355.86C179.157 355.884 178.773 355.896 178.437 355.896C177.837 355.896 177.249 355.848 176.673 355.752C176.097 355.68 175.581 355.524 175.125 355.284C174.669 355.02 174.297 354.648 174.009 354.168C173.745 353.688 173.613 353.04 173.613 352.224C173.613 351.936 173.625 351.576 173.649 351.144C173.697 350.712 173.781 350.232 173.901 349.704L175.413 342.54H172.605L173.109 340.128ZM188.467 340.128H194.335L194.875 342.828H195.127C195.679 341.964 196.387 341.232 197.251 340.632C198.115 340.032 199.255 339.732 200.671 339.732C200.767 339.732 200.911 339.744 201.103 339.768C201.319 339.768 201.547 339.804 201.787 339.876C202.051 339.924 202.315 340.008 202.579 340.128C202.867 340.224 203.143 340.368 203.407 340.56L201.823 347.976H197.899C197.851 346.488 197.719 345.456 197.503 344.88C197.287 344.28 196.939 343.98 196.459 343.98C196.219 343.98 195.955 344.04 195.667 344.16C195.403 344.256 195.127 344.484 194.839 344.844L192.535 355.608H185.191L188.467 340.128ZM205.545 341.46C206.769 340.86 208.017 340.428 209.289 340.164C210.585 339.876 212.025 339.732 213.609 339.732C215.145 339.732 216.417 339.852 217.425 340.092C218.433 340.332 219.237 340.68 219.837 341.136C220.437 341.592 220.857 342.132 221.097 342.756C221.337 343.38 221.457 344.088 221.457 344.88C221.457 345.336 221.421 345.828 221.349 346.356C221.301 346.884 221.241 347.328 221.169 347.688L219.477 355.608H213.681L213.033 353.304H212.817C212.049 354.144 211.149 354.792 210.117 355.248C209.109 355.68 208.101 355.896 207.093 355.896C206.517 355.896 205.953 355.812 205.401 355.644C204.849 355.476 204.357 355.224 203.925 354.888C203.493 354.528 203.145 354.084 202.881 353.556C202.617 353.004 202.485 352.344 202.485 351.576C202.485 350.328 202.821 349.344 203.493 348.624C204.189 347.88 205.089 347.328 206.193 346.968C207.321 346.584 208.581 346.344 209.973 346.248C211.389 346.152 212.805 346.104 214.221 346.104C214.269 345.864 214.329 345.528 214.401 345.096C214.473 344.64 214.509 344.244 214.509 343.908C214.509 343.476 214.389 343.08 214.149 342.72C213.933 342.336 213.465 342.144 212.745 342.144C211.905 342.144 211.281 342.396 210.873 342.9C210.489 343.38 210.237 343.968 210.117 344.664H204.861L205.545 341.46ZM213.825 347.796H213.177C212.481 347.796 211.881 347.892 211.377 348.084C210.897 348.252 210.501 348.48 210.189 348.768C209.901 349.056 209.685 349.38 209.541 349.74C209.397 350.1 209.325 350.46 209.325 350.82C209.325 351.396 209.469 351.828 209.757 352.116C210.069 352.404 210.429 352.548 210.837 352.548C211.341 352.548 211.833 352.368 212.313 352.008C212.817 351.648 213.129 351.168 213.249 350.568L213.825 347.796ZM232.464 342.432C232.968 341.952 233.532 341.508 234.156 341.1C234.708 340.764 235.368 340.452 236.136 340.164C236.904 339.876 237.768 339.732 238.728 339.732C239.88 339.732 240.732 339.996 241.284 340.524C241.86 341.052 242.184 341.7 242.256 342.468H242.472C243.024 341.964 243.624 341.508 244.272 341.1C244.824 340.764 245.472 340.452 246.216 340.164C246.96 339.876 247.752 339.732 248.592 339.732C249.84 339.732 250.848 340.08 251.616 340.776C252.408 341.448 252.804 342.324 252.804 343.404C252.804 343.956 252.708 344.688 252.516 345.6C252.324 346.512 252.108 347.508 251.868 348.588L250.356 355.608H243.264L245.208 346.212C245.28 345.852 245.352 345.504 245.424 345.168C245.496 344.832 245.532 344.556 245.532 344.34C245.532 344.004 245.436 343.728 245.244 343.512C245.052 343.272 244.776 343.152 244.416 343.152C243.96 343.152 243.528 343.32 243.12 343.656C242.736 343.968 242.436 344.232 242.22 344.448L239.88 355.608H233.148L235.128 346.212C235.176 345.9 235.236 345.588 235.308 345.276C235.38 344.94 235.416 344.64 235.416 344.376C235.416 344.016 235.32 343.728 235.128 343.512C234.96 343.272 234.696 343.152 234.336 343.152C233.904 343.152 233.484 343.308 233.076 343.62C232.692 343.932 232.392 344.196 232.176 344.412L229.8 355.608H222.456L225.732 340.128H231.6L232.248 342.432H232.464ZM267.252 340.128H274.596L271.284 355.608H265.452L264.804 353.304H264.588C263.964 354.048 263.112 354.672 262.032 355.176C260.976 355.656 259.908 355.896 258.828 355.896C257.388 355.896 256.26 355.536 255.444 354.816C254.628 354.072 254.22 353.112 254.22 351.936C254.22 351.336 254.316 350.592 254.508 349.704C254.724 348.792 254.916 347.94 255.084 347.148L256.596 340.128H263.904L262.104 348.552C262.056 348.744 262.008 348.972 261.96 349.236C261.912 349.5 261.864 349.764 261.816 350.028C261.768 350.268 261.72 350.508 261.672 350.748C261.648 350.964 261.636 351.144 261.636 351.288C261.636 351.648 261.708 351.96 261.852 352.224C262.02 352.464 262.308 352.584 262.716 352.584C263.148 352.584 263.556 352.44 263.94 352.152C264.324 351.864 264.624 351.588 264.84 351.324L267.252 340.128ZM277.799 340.128H283.667L284.207 342.828H284.459C285.011 341.964 285.719 341.232 286.583 340.632C287.447 340.032 288.587 339.732 290.003 339.732C290.099 339.732 290.243 339.744 290.435 339.768C290.651 339.768 290.879 339.804 291.119 339.876C291.383 339.924 291.647 340.008 291.911 340.128C292.199 340.224 292.475 340.368 292.739 340.56L291.155 347.976H287.231C287.183 346.488 287.051 345.456 286.835 344.88C286.619 344.28 286.271 343.98 285.791 343.98C285.551 343.98 285.287 344.04 284.999 344.16C284.735 344.256 284.459 344.484 284.171 344.844L281.867 355.608H274.523L277.799 340.128ZM316.661 355.608H306.365L305.749 348.612H297.609L294.485 355.608H290.217L303.197 327.668H313.625L316.661 355.608ZM299.061 345.4H305.441L304.429 333.432L299.061 345.4ZM324.694 327.668H334.242L329.05 351.912H337.982L337.234 355.608H318.754L324.694 327.668ZM345.92 327.668H355.468L350.276 351.912H359.208L358.46 355.608H339.98L345.92 327.668Z" fill="white"/>
</svg>
