<svg width="500" height="500" viewBox="0 0 500 500" fill="none" xmlns="http://www.w3.org/2000/svg">
<path d="M259.5 6.63953L456.006 120.093C461.885 123.487 465.506 129.759 465.506 136.547V363.453C465.506 370.241 461.885 376.513 456.006 379.907L259.5 493.36C253.621 496.754 246.379 496.754 240.5 493.36L43.9936 379.907C38.115 376.513 34.4937 370.241 34.4937 363.453V136.547C34.4937 129.759 38.115 123.487 43.9937 120.093L240.5 6.63952C246.379 3.2455 253.621 3.2455 259.5 6.63953Z" fill="#222222" stroke="black" stroke-width="2"/>
<path d="M240.842 96.2604L199.73 138.445L157.364 181.043" stroke="#FFFDFD" stroke-width="2"/>
<path d="M212.273 91.4892L183.997 122.197L154.013 151.862" stroke="#FFFDFD" stroke-width="2"/>
<path d="M297.251 183.658L286.792 169.277L275.026 154.896L264.567 144.437L252.147 133.325L238.42 122.866" stroke="#FFFDFD" stroke-width="2"/>
<path d="M329.281 209.805L302.031 238.778L273.719 266.67" stroke="#FFFDFD" stroke-width="2"/>
<path d="M324.943 181.043L285.964 221.058L244.957 262.753" stroke="#FFFDFD" stroke-width="2"/>
<line x1="247.925" y1="114.722" x2="230.929" y2="131.717" stroke="#FFFDFD"/>
<line x1="260.999" y1="125.18" x2="244.003" y2="142.176" stroke="#FFFDFD"/>
<line x1="272.765" y1="136.947" x2="255.769" y2="153.942" stroke="#FFFDFD"/>
<line x1="284.531" y1="148.713" x2="267.535" y2="165.709" stroke="#FFFDFD"/>
<line x1="296.297" y1="160.479" x2="279.302" y2="177.475" stroke="#FFFDFD"/>
<line x1="306.756" y1="173.553" x2="289.76" y2="190.548" stroke="#FFFDFD"/>
<line x1="172.375" y1="179.033" x2="161.37" y2="190.29" stroke="#FFFDFD"/>
<path d="M167.529 160.582L156.056 171.892" stroke="#FFFDFD"/>
<line x1="164.804" y1="151.324" x2="153.799" y2="162.581" stroke="#FFFDFD"/>
<line x1="164.804" y1="130.406" x2="153.799" y2="141.663" stroke="#FFFDFD"/>
<line x1="167.419" y1="117.332" x2="156.414" y2="128.589" stroke="#FFFDFD"/>
<line x1="295.54" y1="254.605" x2="284.535" y2="265.862" stroke="#FFFDFD"/>
<line x1="307.306" y1="254.605" x2="296.301" y2="265.862" stroke="#FFFDFD"/>
<line x1="177.878" y1="190.544" x2="166.873" y2="201.801" stroke="#FFFDFD"/>
<line x1="184.415" y1="201.003" x2="173.409" y2="212.26" stroke="#FFFDFD"/>
<line x1="189.644" y1="210.155" x2="178.639" y2="221.412" stroke="#FFFDFD"/>
<line x1="197.488" y1="216.692" x2="186.483" y2="227.949" stroke="#FFFDFD"/>
<line x1="205.332" y1="224.536" x2="194.327" y2="235.793" stroke="#FFFDFD"/>
<line x1="215.791" y1="231.072" x2="204.786" y2="242.33" stroke="#FFFDFD"/>
<line x1="224.943" y1="237.609" x2="213.938" y2="248.866" stroke="#FFFDFD"/>
<line x1="236.709" y1="242.839" x2="225.704" y2="254.096" stroke="#FFFDFD"/>
<line x1="248.475" y1="246.761" x2="237.47" y2="258.018" stroke="#FFFDFD"/>
<line x1="265.471" y1="251.99" x2="254.466" y2="263.247" stroke="#FFFDFD"/>
<line x1="277.237" y1="253.298" x2="266.232" y2="264.555" stroke="#FFFDFD"/>
<path d="M158.017 180.39C159.063 187.711 162.811 196.949 164.554 200.654L171.745 213.074L180.242 223.532L191.355 234.645L209.004 247.065L225.346 254.909L245.61 262.1M153.442 152.281V147.052V141.169L154.749 135.286L155.403 130.71L156.71 125.481L160.632 115.675L165.208 107.177L169.784 100.641L173.052 97.3723L178.281 95.4113L185.472 92.7965L194.623 91.4892L201.16 90.8355H205.082H209.658H212.926M241.035 96.0649L251.494 99.3333L259.338 102.602L263.913 104.563L269.797 107.831L274.372 110.446L284.177 116.983L290.061 121.558L293.983 125.481L299.212 131.364L302.481 135.286L305.749 139.861L309.017 144.437L310.978 147.706L315.554 155.55L318.822 162.087L321.437 167.97L324.052 175.16L326.013 181.043M329.935 209.152V214.381V218.957L329.281 228.108L327.32 235.299L324.706 245.104L322.091 250.333L318.822 256.216L316.208 260.139L312.939 262.1L309.671 263.407L303.788 264.714L298.558 265.368L289.407 266.675H282.216H277.641H275.026" stroke="#FFFDFD" stroke-width="2"/>
<rect x="32" y="304" width="435" height="72" rx="5" fill="#FC7B04" fill-opacity="0.75"/>
<path d="M146.569 355H138.793L143.653 332.14H151.465L146.569 355ZM160.183 341.824C160.687 341.344 161.251 340.9 161.875 340.492C162.427 340.156 163.075 339.844 163.819 339.556C164.563 339.268 165.391 339.124 166.303 339.124C167.551 339.124 168.583 339.448 169.399 340.096C170.215 340.72 170.623 341.584 170.623 342.688C170.623 343 170.587 343.384 170.515 343.84C170.443 344.272 170.359 344.728 170.263 345.208C170.167 345.688 170.059 346.18 169.939 346.684C169.843 347.164 169.759 347.596 169.687 347.98L168.175 355H160.867L162.847 345.604C162.895 345.292 162.955 344.98 163.027 344.668C163.099 344.332 163.135 344.032 163.135 343.768C163.135 343.408 163.039 343.12 162.847 342.904C162.679 342.664 162.415 342.544 162.055 342.544C161.623 342.544 161.203 342.7 160.795 343.012C160.411 343.324 160.111 343.588 159.895 343.804L157.519 355H150.175L153.451 339.52H159.319L159.967 341.824H160.183ZM173.109 339.52C173.997 339.328 174.777 339.112 175.449 338.872C176.121 338.632 176.733 338.332 177.285 337.972C177.861 337.612 178.401 337.168 178.905 336.64C179.433 336.112 179.997 335.464 180.597 334.696H184.305L183.261 339.52H186.069L185.601 341.932H182.757L181.281 348.952C181.161 349.504 181.065 349.996 180.993 350.428C180.921 350.86 180.885 351.196 180.885 351.436C180.885 351.916 181.053 352.216 181.389 352.336C181.749 352.456 182.409 352.516 183.369 352.516L182.829 355C182.661 355.048 182.397 355.084 182.037 355.108C181.701 355.132 181.317 355.156 180.885 355.18C180.477 355.228 180.045 355.252 179.589 355.252C179.157 355.276 178.773 355.288 178.437 355.288C177.837 355.288 177.249 355.24 176.673 355.144C176.097 355.072 175.581 354.916 175.125 354.676C174.669 354.412 174.297 354.04 174.009 353.56C173.745 353.08 173.613 352.432 173.613 351.616C173.613 351.328 173.625 350.968 173.649 350.536C173.697 350.104 173.781 349.624 173.901 349.096L175.413 341.932H172.605L173.109 339.52ZM188.467 339.52H194.335L194.875 342.22H195.127C195.679 341.356 196.387 340.624 197.251 340.024C198.115 339.424 199.255 339.124 200.671 339.124C200.767 339.124 200.911 339.136 201.103 339.16C201.319 339.16 201.547 339.196 201.787 339.268C202.051 339.316 202.315 339.4 202.579 339.52C202.867 339.616 203.143 339.76 203.407 339.952L201.823 347.368H197.899C197.851 345.88 197.719 344.848 197.503 344.272C197.287 343.672 196.939 343.372 196.459 343.372C196.219 343.372 195.955 343.432 195.667 343.552C195.403 343.648 195.127 343.876 194.839 344.236L192.535 355H185.191L188.467 339.52ZM205.545 340.852C206.769 340.252 208.017 339.82 209.289 339.556C210.585 339.268 212.025 339.124 213.609 339.124C215.145 339.124 216.417 339.244 217.425 339.484C218.433 339.724 219.237 340.072 219.837 340.528C220.437 340.984 220.857 341.524 221.097 342.148C221.337 342.772 221.457 343.48 221.457 344.272C221.457 344.728 221.421 345.22 221.349 345.748C221.301 346.276 221.241 346.72 221.169 347.08L219.477 355H213.681L213.033 352.696H212.817C212.049 353.536 211.149 354.184 210.117 354.64C209.109 355.072 208.101 355.288 207.093 355.288C206.517 355.288 205.953 355.204 205.401 355.036C204.849 354.868 204.357 354.616 203.925 354.28C203.493 353.92 203.145 353.476 202.881 352.948C202.617 352.396 202.485 351.736 202.485 350.968C202.485 349.72 202.821 348.736 203.493 348.016C204.189 347.272 205.089 346.72 206.193 346.36C207.321 345.976 208.581 345.736 209.973 345.64C211.389 345.544 212.805 345.496 214.221 345.496C214.269 345.256 214.329 344.92 214.401 344.488C214.473 344.032 214.509 343.636 214.509 343.3C214.509 342.868 214.389 342.472 214.149 342.112C213.933 341.728 213.465 341.536 212.745 341.536C211.905 341.536 211.281 341.788 210.873 342.292C210.489 342.772 210.237 343.36 210.117 344.056H204.861L205.545 340.852ZM213.825 347.188H213.177C212.481 347.188 211.881 347.284 211.377 347.476C210.897 347.644 210.501 347.872 210.189 348.16C209.901 348.448 209.685 348.772 209.541 349.132C209.397 349.492 209.325 349.852 209.325 350.212C209.325 350.788 209.469 351.22 209.757 351.508C210.069 351.796 210.429 351.94 210.837 351.94C211.341 351.94 211.833 351.76 212.313 351.4C212.817 351.04 213.129 350.56 213.249 349.96L213.825 347.188ZM232.464 341.824C232.968 341.344 233.532 340.9 234.156 340.492C234.708 340.156 235.368 339.844 236.136 339.556C236.904 339.268 237.768 339.124 238.728 339.124C239.88 339.124 240.732 339.388 241.284 339.916C241.86 340.444 242.184 341.092 242.256 341.86H242.472C243.024 341.356 243.624 340.9 244.272 340.492C244.824 340.156 245.472 339.844 246.216 339.556C246.96 339.268 247.752 339.124 248.592 339.124C249.84 339.124 250.848 339.472 251.616 340.168C252.408 340.84 252.804 341.716 252.804 342.796C252.804 343.348 252.708 344.08 252.516 344.992C252.324 345.904 252.108 346.9 251.868 347.98L250.356 355H243.264L245.208 345.604C245.28 345.244 245.352 344.896 245.424 344.56C245.496 344.224 245.532 343.948 245.532 343.732C245.532 343.396 245.436 343.12 245.244 342.904C245.052 342.664 244.776 342.544 244.416 342.544C243.96 342.544 243.528 342.712 243.12 343.048C242.736 343.36 242.436 343.624 242.22 343.84L239.88 355H233.148L235.128 345.604C235.176 345.292 235.236 344.98 235.308 344.668C235.38 344.332 235.416 344.032 235.416 343.768C235.416 343.408 235.32 343.12 235.128 342.904C234.96 342.664 234.696 342.544 234.336 342.544C233.904 342.544 233.484 342.7 233.076 343.012C232.692 343.324 232.392 343.588 232.176 343.804L229.8 355H222.456L225.732 339.52H231.6L232.248 341.824H232.464ZM267.252 339.52H274.596L271.284 355H265.452L264.804 352.696H264.588C263.964 353.44 263.112 354.064 262.032 354.568C260.976 355.048 259.908 355.288 258.828 355.288C257.388 355.288 256.26 354.928 255.444 354.208C254.628 353.464 254.22 352.504 254.22 351.328C254.22 350.728 254.316 349.984 254.508 349.096C254.724 348.184 254.916 347.332 255.084 346.54L256.596 339.52H263.904L262.104 347.944C262.056 348.136 262.008 348.364 261.96 348.628C261.912 348.892 261.864 349.156 261.816 349.42C261.768 349.66 261.72 349.9 261.672 350.14C261.648 350.356 261.636 350.536 261.636 350.68C261.636 351.04 261.708 351.352 261.852 351.616C262.02 351.856 262.308 351.976 262.716 351.976C263.148 351.976 263.556 351.832 263.94 351.544C264.324 351.256 264.624 350.98 264.84 350.716L267.252 339.52ZM277.799 339.52H283.667L284.207 342.22H284.459C285.011 341.356 285.719 340.624 286.583 340.024C287.447 339.424 288.587 339.124 290.003 339.124C290.099 339.124 290.243 339.136 290.435 339.16C290.651 339.16 290.879 339.196 291.119 339.268C291.383 339.316 291.647 339.4 291.911 339.52C292.199 339.616 292.475 339.76 292.739 339.952L291.155 347.368H287.231C287.183 345.88 287.051 344.848 286.835 344.272C286.619 343.672 286.271 343.372 285.791 343.372C285.551 343.372 285.287 343.432 284.999 343.552C284.735 343.648 284.459 343.876 284.171 344.236L281.867 355H274.523L277.799 339.52ZM316.661 355H306.365L305.749 348.004H297.609L294.485 355H290.217L303.197 327.06H313.625L316.661 355ZM299.061 344.792H305.441L304.429 332.824L299.061 344.792ZM324.694 327.06H334.242L329.05 351.304H337.982L337.234 355H318.754L324.694 327.06ZM345.92 327.06H355.468L350.276 351.304H359.208L358.46 355H339.98L345.92 327.06Z" fill="white"/>
</svg>
