<svg width="271" height="72" viewBox="0 0 271 72" fill="none" xmlns="http://www.w3.org/2000/svg">
<rect width="271" height="72" rx="5" fill="#FC7B04" fill-opacity="0.75"/>
<path d="M32.3805 51H24.6045L29.4645 28.14H37.2765L32.3805 51ZM45.9946 37.824C46.4986 37.344 47.0626 36.9 47.6867 36.492C48.2387 36.156 48.8867 35.844 49.6306 35.556C50.3746 35.268 51.2026 35.124 52.1147 35.124C53.3626 35.124 54.3946 35.448 55.2107 36.096C56.0267 36.72 56.4347 37.584 56.4347 38.688C56.4347 39 56.3986 39.384 56.3266 39.84C56.2547 40.272 56.1707 40.728 56.0747 41.208C55.9787 41.688 55.8707 42.18 55.7507 42.684C55.6547 43.164 55.5706 43.596 55.4986 43.98L53.9866 51H46.6786L48.6586 41.604C48.7066 41.292 48.7666 40.98 48.8386 40.668C48.9106 40.332 48.9467 40.032 48.9467 39.768C48.9467 39.408 48.8506 39.12 48.6586 38.904C48.4906 38.664 48.2266 38.544 47.8666 38.544C47.4346 38.544 47.0146 38.7 46.6067 39.012C46.2227 39.324 45.9226 39.588 45.7066 39.804L43.3306 51H35.9866L39.2626 35.52H45.1306L45.7787 37.824H45.9946ZM58.9206 35.52C59.8086 35.328 60.5886 35.112 61.2606 34.872C61.9326 34.632 62.5446 34.332 63.0966 33.972C63.6726 33.612 64.2126 33.168 64.7166 32.64C65.2446 32.112 65.8086 31.464 66.4086 30.696H70.1166L69.0726 35.52H71.8806L71.4126 37.932H68.5686L67.0926 44.952C66.9726 45.504 66.8766 45.996 66.8046 46.428C66.7326 46.86 66.6966 47.196 66.6966 47.436C66.6966 47.916 66.8646 48.216 67.2006 48.336C67.5606 48.456 68.2206 48.516 69.1806 48.516L68.6406 51C68.4726 51.048 68.2086 51.084 67.8486 51.108C67.5126 51.132 67.1286 51.156 66.6966 51.18C66.2886 51.228 65.8566 51.252 65.4006 51.252C64.9686 51.276 64.5846 51.288 64.2486 51.288C63.6486 51.288 63.0606 51.24 62.4846 51.144C61.9086 51.072 61.3926 50.916 60.9366 50.676C60.4806 50.412 60.1086 50.04 59.8206 49.56C59.5566 49.08 59.4246 48.432 59.4246 47.616C59.4246 47.328 59.4366 46.968 59.4606 46.536C59.5086 46.104 59.5926 45.624 59.7126 45.096L61.2246 37.932H58.4166L58.9206 35.52ZM74.2783 35.52H80.1463L80.6863 38.22H80.9383C81.4903 37.356 82.1983 36.624 83.0623 36.024C83.9263 35.424 85.0663 35.124 86.4823 35.124C86.5783 35.124 86.7223 35.136 86.9143 35.16C87.1303 35.16 87.3583 35.196 87.5983 35.268C87.8623 35.316 88.1263 35.4 88.3903 35.52C88.6783 35.616 88.9543 35.76 89.2183 35.952L87.6343 43.368H83.7103C83.6623 41.88 83.5303 40.848 83.3143 40.272C83.0983 39.672 82.7503 39.372 82.2703 39.372C82.0303 39.372 81.7663 39.432 81.4783 39.552C81.2143 39.648 80.9383 39.876 80.6503 40.236L78.3463 51H71.0023L74.2783 35.52ZM91.3566 36.852C92.5806 36.252 93.8286 35.82 95.1006 35.556C96.3966 35.268 97.8366 35.124 99.4206 35.124C100.957 35.124 102.229 35.244 103.237 35.484C104.245 35.724 105.049 36.072 105.649 36.528C106.249 36.984 106.669 37.524 106.909 38.148C107.149 38.772 107.269 39.48 107.269 40.272C107.269 40.728 107.233 41.22 107.161 41.748C107.113 42.276 107.053 42.72 106.981 43.08L105.289 51H99.4926L98.8446 48.696H98.6286C97.8606 49.536 96.9606 50.184 95.9286 50.64C94.9206 51.072 93.9126 51.288 92.9046 51.288C92.3286 51.288 91.7646 51.204 91.2126 51.036C90.6606 50.868 90.1686 50.616 89.7366 50.28C89.3046 49.92 88.9566 49.476 88.6926 48.948C88.4286 48.396 88.2966 47.736 88.2966 46.968C88.2966 45.72 88.6326 44.736 89.3046 44.016C90.0006 43.272 90.9006 42.72 92.0046 42.36C93.1326 41.976 94.3926 41.736 95.7846 41.64C97.2006 41.544 98.6166 41.496 100.033 41.496C100.081 41.256 100.141 40.92 100.213 40.488C100.285 40.032 100.321 39.636 100.321 39.3C100.321 38.868 100.201 38.472 99.9606 38.112C99.7446 37.728 99.2766 37.536 98.5566 37.536C97.7166 37.536 97.0926 37.788 96.6846 38.292C96.3006 38.772 96.0486 39.36 95.9286 40.056H90.6726L91.3566 36.852ZM99.6366 43.188H98.9886C98.2926 43.188 97.6926 43.284 97.1886 43.476C96.7086 43.644 96.3126 43.872 96.0006 44.16C95.7126 44.448 95.4966 44.772 95.3526 45.132C95.2086 45.492 95.1366 45.852 95.1366 46.212C95.1366 46.788 95.2806 47.22 95.5686 47.508C95.8806 47.796 96.2406 47.94 96.6486 47.94C97.1526 47.94 97.6446 47.76 98.1246 47.4C98.6286 47.04 98.9406 46.56 99.0606 45.96L99.6366 43.188ZM118.276 37.824C118.78 37.344 119.344 36.9 119.968 36.492C120.52 36.156 121.18 35.844 121.948 35.556C122.716 35.268 123.58 35.124 124.54 35.124C125.692 35.124 126.544 35.388 127.096 35.916C127.672 36.444 127.996 37.092 128.068 37.86H128.284C128.836 37.356 129.436 36.9 130.084 36.492C130.636 36.156 131.284 35.844 132.028 35.556C132.772 35.268 133.564 35.124 134.404 35.124C135.652 35.124 136.66 35.472 137.428 36.168C138.22 36.84 138.616 37.716 138.616 38.796C138.616 39.348 138.52 40.08 138.328 40.992C138.136 41.904 137.92 42.9 137.68 43.98L136.168 51H129.076L131.02 41.604C131.092 41.244 131.164 40.896 131.236 40.56C131.308 40.224 131.344 39.948 131.344 39.732C131.344 39.396 131.248 39.12 131.056 38.904C130.864 38.664 130.588 38.544 130.228 38.544C129.772 38.544 129.34 38.712 128.932 39.048C128.548 39.36 128.248 39.624 128.032 39.84L125.692 51H118.96L120.94 41.604C120.988 41.292 121.048 40.98 121.12 40.668C121.192 40.332 121.228 40.032 121.228 39.768C121.228 39.408 121.132 39.12 120.94 38.904C120.772 38.664 120.508 38.544 120.148 38.544C119.716 38.544 119.296 38.7 118.888 39.012C118.504 39.324 118.204 39.588 117.988 39.804L115.612 51H108.268L111.544 35.52H117.412L118.06 37.824H118.276ZM153.064 35.52H160.408L157.096 51H151.264L150.616 48.696H150.4C149.776 49.44 148.924 50.064 147.844 50.568C146.788 51.048 145.72 51.288 144.64 51.288C143.2 51.288 142.072 50.928 141.256 50.208C140.44 49.464 140.032 48.504 140.032 47.328C140.032 46.728 140.128 45.984 140.32 45.096C140.536 44.184 140.728 43.332 140.896 42.54L142.408 35.52H149.716L147.916 43.944C147.868 44.136 147.82 44.364 147.772 44.628C147.724 44.892 147.676 45.156 147.628 45.42C147.58 45.66 147.532 45.9 147.484 46.14C147.46 46.356 147.448 46.536 147.448 46.68C147.448 47.04 147.52 47.352 147.664 47.616C147.832 47.856 148.12 47.976 148.528 47.976C148.96 47.976 149.368 47.832 149.752 47.544C150.136 47.256 150.436 46.98 150.652 46.716L153.064 35.52ZM163.61 35.52H169.478L170.018 38.22H170.27C170.822 37.356 171.53 36.624 172.394 36.024C173.258 35.424 174.398 35.124 175.814 35.124C175.91 35.124 176.054 35.136 176.246 35.16C176.462 35.16 176.69 35.196 176.93 35.268C177.194 35.316 177.458 35.4 177.722 35.52C178.01 35.616 178.286 35.76 178.55 35.952L176.966 43.368H173.042C172.994 41.88 172.862 40.848 172.646 40.272C172.43 39.672 172.082 39.372 171.602 39.372C171.362 39.372 171.098 39.432 170.81 39.552C170.546 39.648 170.27 39.876 169.982 40.236L167.678 51H160.334L163.61 35.52ZM202.473 51H192.177L191.561 44.004H183.421L180.297 51H176.029L189.009 23.06H199.437L202.473 51ZM184.873 40.792H191.253L190.241 28.824L184.873 40.792ZM210.505 23.06H220.053L214.861 47.304H223.793L223.045 51H204.565L210.505 23.06ZM231.732 23.06H241.28L236.088 47.304H245.02L244.272 51H225.792L231.732 23.06Z" fill="white"/>
</svg>
