<svg width="150" height="150" viewBox="0 0 150 150" fill="none" xmlns="http://www.w3.org/2000/svg">
<path d="M135.066 79.3011L135.044 79.3205L135.025 79.3422C134.944 79.4327 134.86 79.5221 134.772 79.6096L116.566 97.8158C114.32 100.061 110.68 100.061 108.434 97.8158C106.189 95.5705 106.189 91.9295 108.434 89.6842L116.515 81.6036L117.368 80.75H116.161H81.25C78.0743 80.75 75.5 78.1757 75.5 75C75.5 71.8243 78.0743 69.25 81.25 69.25H116.161H117.368L116.515 68.3964L108.434 60.3159C106.189 58.0703 106.189 54.4297 108.434 52.1841C110.68 49.9386 114.32 49.9386 116.566 52.1841L116.919 51.8306L116.566 52.1841L134.772 70.3904C134.86 70.4779 134.944 70.5673 135.025 70.6578L135.044 70.6795L135.066 70.6989C136.253 71.753 137 73.2889 137 75C137 76.7111 136.253 78.247 135.066 79.3011Z" fill="#6A787A" stroke="black"/>
<path d="M13 31.25C13 21.1708 21.1708 13 31.25 13H90.625C98.9782 13 105.75 19.7717 105.75 28.125V45.1364C104.88 45.6657 104.059 46.3063 103.308 47.0576C99.2646 51.1005 98.4419 57.1428 100.837 62H81.25C74.0701 62 68.25 67.8201 68.25 75C68.25 82.1799 74.0701 88 81.25 88H100.837C98.4419 92.8574 99.2646 98.8992 103.308 102.942C104.059 103.694 104.88 104.334 105.75 104.863V121.875C105.75 130.228 98.9782 137 90.625 137H31.25C21.1708 137 13 128.829 13 118.75V31.25Z" fill="#6A787A" stroke="black"/>
</svg>
