<svg width="106" height="88" viewBox="0 0 106 88" fill="none" xmlns="http://www.w3.org/2000/svg">
<path d="M87.3605 29.7375L87.3606 29.9686L87.5366 30.1183L103.846 43.9892C103.847 43.9895 103.847 43.9897 103.847 43.99C104.312 44.391 104.594 44.7416 104.736 45.0235C104.877 45.3021 104.861 45.4666 104.822 45.5588C104.78 45.6578 104.659 45.8004 104.335 45.922C104.013 46.0429 103.542 46.1214 102.909 46.1214H90.673H90.173V46.6214V82.8684C90.173 85.0638 88.1629 87.0793 85.75 87.0793H65.0145V62.1905C65.0145 59.3937 62.3667 56.9796 59.452 56.9796H46.0915C43.1769 56.9796 40.529 59.3937 40.529 62.1905V87.0793H19.7935C17.3622 87.0793 15.231 85.0463 15.231 82.8684V46.6214V46.1214H14.731H2.63501C2.00144 46.1214 1.53037 46.0429 1.20842 45.922C0.884863 45.8004 0.763626 45.6578 0.721796 45.5588C0.682789 45.4666 0.66645 45.3021 0.807059 45.0235C0.949244 44.7418 1.23108 44.3914 1.69528 43.9907C1.69588 43.9902 1.69649 43.9897 1.69709 43.9892L49.3663 3.68772L49.3701 3.68449C51.1466 2.15213 54.2491 2.13762 56.1784 3.6925C56.1794 3.6933 56.1804 3.69411 56.1814 3.69492L67.0023 12.7181L67.8225 13.4021V12.3341V5.13581C67.8225 2.95786 69.9537 0.924873 72.385 0.924873H82.933C85.346 0.924873 87.356 2.94038 87.356 5.13581L87.3605 29.7375Z" fill="#6A787A" stroke="black"/>
</svg>
