<svg width="110" height="107" viewBox="0 0 110 107" fill="none" xmlns="http://www.w3.org/2000/svg">
<path d="M99.0206 96.2012H99.5206V95.7012V5.38805C99.5206 2.6973 101.746 0.5 104.51 0.5C107.274 0.5 109.499 2.6973 109.499 5.38805V101.089C109.499 103.78 107.274 105.977 104.51 105.977H7.00817C4.24385 105.977 2.01874 103.78 2.01874 101.089C2.01874 98.3985 4.24385 96.2012 7.00817 96.2012H99.0206Z" fill="#6A787A" stroke="black"/>
<path d="M69.5855 39.8293L69.5856 39.8294C76.3263 42.6886 84.1587 39.6463 87.0775 33.018L86.6199 32.8165L87.0775 33.018L90.1074 26.1371V84.5292C90.1074 86.1291 88.7836 87.4417 87.1308 87.4417H71.7603C70.1074 87.4417 68.7837 86.1291 68.7837 84.5292V39.4558C69.0442 39.588 69.3113 39.7129 69.5855 39.8293Z" fill="#6A787A" stroke="black"/>
<path d="M55.7345 87.4417H40.364C38.7111 87.4417 37.3874 86.1291 37.3874 84.5293V45.8894L58.7111 37.5919V84.5293C58.7111 86.1291 57.3873 87.4417 55.7345 87.4417Z" fill="#6A787A" stroke="black"/>
<path d="M5.99078 84.5292V57.3068C7.46125 57.2525 8.94725 56.9558 10.3924 56.3932L27.3145 49.8087V84.5292C27.3145 86.1291 25.9907 87.4417 24.3378 87.4417H8.96743C7.31454 87.4417 5.99078 86.1291 5.99078 84.5292Z" fill="#6A787A" stroke="black"/>
<path d="M82.7026 10.0236L82.5074 10.4839C85.0391 11.5577 86.1939 14.4349 85.1058 16.9055L79.4432 29.7651C78.3529 32.2411 75.4144 33.3903 72.8794 32.3142L72.8793 32.3141C70.3476 31.2403 69.1928 28.3631 70.2809 25.8925L70.6462 25.0631L71.133 23.9576L70.0072 24.3956L61.8745 27.5602L7.33264 48.7833C4.76009 49.7837 1.86292 48.5431 0.851448 46.039C-0.159053 43.5368 1.08443 40.6954 3.6491 39.6975L58.2397 18.4549L66.4541 15.2587L67.6003 14.8127L66.468 14.3324L65.4408 13.8967C62.909 12.8228 61.7543 9.94569 62.8424 7.47504L62.8424 7.47501C63.9325 4.99942 66.8686 3.84811 69.4061 4.92584L69.4063 4.92591L82.5074 10.4839L82.7026 10.0236Z" fill="#6A787A" stroke="black"/>
</svg>
