<svg width="125" height="125" viewBox="0 0 125 125" fill="none" xmlns="http://www.w3.org/2000/svg">
<path d="M31.6926 12.3269C31.6926 18.8587 26.3975 24.1538 19.8657 24.1538C13.3338 24.1538 8.03876 18.8587 8.03876 12.3269C8.03876 5.79509 13.3338 0.5 19.8657 0.5C26.3975 0.5 31.6926 5.79509 31.6926 12.3269Z" fill="#6A787A" stroke="black"/>
<path d="M7.83502 67.8479V67.3479H7.33502H6.11252C2.93023 67.3479 0.5 64.8276 0.5 61.7365V35.3507C0.5 32.265 3.02678 29.7382 6.11252 29.7382H33.6189C36.7046 29.7382 39.2314 32.265 39.2314 35.3507V37.4715C33.8169 39.9588 30.0626 45.4485 30.0626 51.7527V83.7415C30.0626 86.3378 30.7772 88.8208 31.8964 90.9949V92.298C31.8964 95.3847 29.3696 97.9106 26.2838 97.9106H13.4475C10.3617 97.9106 7.83502 95.3847 7.83502 92.298V67.8479Z" fill="#6A787A" stroke="black"/>
<path d="M117.064 12.3269C117.064 18.8587 111.769 24.1538 105.237 24.1538C98.7054 24.1538 93.4103 18.8587 93.4103 12.3269C93.4103 5.79509 98.7054 0.5 105.237 0.5C111.769 0.5 117.064 5.79509 117.064 12.3269Z" fill="#6A787A" stroke="black"/>
<path d="M117.666 67.1452H117.166V67.6452V92.0953C117.166 95.181 114.639 97.7078 111.553 97.7078H98.7172C95.6305 97.7078 93.1047 95.1811 93.1047 92.0953V90.8004C94.3285 88.6081 94.9374 86.1191 94.9374 83.5378V51.6508C94.9374 45.3466 91.1841 39.8569 85.7686 37.3696V35.2489C85.7686 32.1622 88.2963 29.6364 91.3811 29.6364H118.887C121.974 29.6364 124.5 32.1631 124.5 35.2489V61.5327C124.5 64.6185 121.974 67.1452 118.887 67.1452H117.666Z" fill="#6A787A" stroke="black"/>
<path d="M48.7889 89.853V89.353H48.2889H45.9458C42.86 89.353 40.3333 86.8263 40.3333 83.7405V61.7354V51.7517C40.3333 48.6614 42.7636 46.1392 45.9456 46.1402H45.9458H79.259C82.3448 46.1402 84.8715 48.6669 84.8715 51.7527V61.7365V83.6386C84.8715 86.7253 82.3448 89.2511 79.259 89.2511H76.9159H76.4159V89.7511V118.684C76.4159 121.769 73.8891 124.296 70.8034 124.296H54.4014C51.3157 124.296 48.7889 121.769 48.7889 118.684V89.853Z" fill="#6A787A" stroke="black"/>
<path d="M76.2122 26.3857C76.2122 33.9303 70.0961 40.0464 62.5515 40.0464C55.0069 40.0464 48.8908 33.9303 48.8908 26.3857C48.8908 18.8411 55.0069 12.725 62.5515 12.725C70.0961 12.725 76.2122 18.8411 76.2122 26.3857Z" fill="#6A787A" stroke="black"/>
</svg>
